<?xml version="1.0" encoding="utf-8"?>
<!-- Generator: Adobe Illustrator 24.3.0, SVG Export Plug-In . SVG Version: 6.00 Build 0)  -->
<svg version="1.1" id="Layer_1" xmlns="http://www.w3.org/2000/svg" xmlns:xlink="http://www.w3.org/1999/xlink" x="0px" y="0px"
	 viewBox="0 0 105.6 103.1" style="enable-background:new 0 0 105.6 103.1;" xml:space="preserve">
<style type="text/css">
	.st0{fill:#FC766A;}
</style>
<path class="st0" d="M82.5,64.2c-0.2,0.8-0.6,1.5-0.8,2.2c-0.3,0.7-0.6,1.5-1,2.2l-1.1,2.1l-1.3,2c-3.6,5.2-8.7,9.4-14.5,11.8
	c-0.4,0.2-0.7,0.3-1.1,0.5l-1.1,0.4c-0.8,0.2-1.5,0.5-2.3,0.7L57,86.5c-0.8,0.2-1.6,0.2-2.3,0.3C53.1,87.1,51.5,87,50,87
	c-0.8,0-1.6-0.1-2.3-0.2c-0.8,0-1.5-0.2-2.3-0.3c-1.5-0.2-3-0.7-4.5-1.1c-1.4-0.6-2.9-1.1-4.3-1.9c-2.8-1.4-5.4-3.2-7.6-5.3
	c-2.2-2.2-4.2-4.6-5.8-7.2c-1.5-2.7-2.7-5.6-3.5-8.6c-0.7-3-1-6.1-0.9-9.2c0.2-3.1,0.8-6.1,1.8-9.1c1.1-2.9,2.5-5.7,4.3-8.2
	c1.8-2.5,4-4.7,6.4-6.6c2.5-1.9,5.2-3.4,8.1-4.5s5.9-1.7,9-2l0,0c0.5,0,0.9-0.3,1.1-0.8c0.7-1.6,1.6-3.3,2.5-4.8
	c0.4-0.8,0.9-1.5,1.4-2.2c0.3-0.4,0.7-0.9,1-1.2c0.2,0.1,0.4,0.3,0.6,0.5c0.4,0.4,0.8,0.9,1.2,1.4s0.7,1,1,1.6s0.6,1.2,0.8,1.8l0,0
	c0.2,0.5,0.7,0.8,1.2,0.8c1,0,2.1,0,3.2,0.1c1.1,0.1,2.1,0.3,3.2,0.5c1,0.2,2.1,0.6,3,1c1,0.4,1.9,1,2.7,1.6l0,0
	c0.4,0.3,0.9,0.3,1.3,0s1-0.7,1.5-1s1.1-0.6,1.6-0.8c0.9-0.4,1.8-0.6,2.7-0.7c0.1,0.6,0.2,1.2,0.3,1.8c0.1,0.9,0.1,1.8,0.1,2.7
	c0,1.8-0.3,3.6-0.7,5.4c-0.4,1.8-1,3.5-1.7,5.2s-1.4,3.4-2.6,4.8c-2.2,2.8-5.6,4.7-9.3,5c-3.6,0.3-7.4-0.9-10.3-3.3
	c2.7,2.6,6.5,4.1,10.3,4c3.8-0.1,7.6-2,10.1-4.9c1.3-1.5,2.2-3.2,3-4.9s1.4-3.5,1.9-5.4s0.8-3.8,0.9-5.7c0.1-2,0-3.9-0.6-5.9
	c-0.1-0.4-0.4-0.6-0.9-0.6h-0.1c-1.5,0-2.9,0.3-4.2,0.8c-0.7,0.2-1.3,0.5-1.9,0.9c-0.4,0.2-0.8,0.4-1.1,0.7
	c-1.8-1.3-3.8-2.1-5.8-2.7c-1.2-0.3-2.3-0.5-3.5-0.7c-0.9-0.1-1.8-0.2-2.7-0.2c-0.2-0.4-0.4-0.8-0.6-1.2c-0.3-0.7-0.7-1.3-1.2-1.9
	c-0.4-0.6-0.9-1.2-1.5-1.8c-0.3-0.3-0.6-0.5-1-0.8c-0.2-0.1-0.4-0.2-0.6-0.3c-0.2-0.1-0.3-0.2-0.7-0.3s-0.8-0.1-1.1,0.2l0,0
	c-1,0.7-1.6,1.5-2.2,2.3c-0.6,0.8-1.1,1.6-1.6,2.4c-0.8,1.4-1.6,2.8-2.3,4.3c-3.1,0.3-6.1,0.9-9,2c-3.1,1.2-6.1,2.9-8.8,4.9
	c-2.7,2.1-5,4.5-7.1,7.2c-2,2.7-3.5,5.8-4.7,8.9c-1.1,3.2-1.7,6.5-1.9,9.9c-0.1,3.4,0.2,6.8,1,10c0.9,3.3,2.2,6.4,3.9,9.3
	c1.7,2.9,3.9,5.5,6.4,7.8c2.4,2.3,5.3,4.2,8.3,5.6c1.5,0.8,3.1,1.3,4.7,1.9c1.6,0.4,3.2,0.9,4.9,1.1c0.8,0.1,1.6,0.3,2.5,0.3
	c0.8,0,1.7,0.1,2.5,0.1c1.7-0.1,3.3,0,5-0.3c3.3-0.4,6.5-1.4,9.5-2.7c6.1-2.7,11.2-7.3,14.7-12.9l1.2-2.1l1-2.2
	c0.4-0.7,0.6-1.5,0.9-2.3c0.2-0.8,0.6-1.5,0.7-2.3l0.6-2.4c0.2-0.8,0.2-1.6,0.3-2.4l0.2-1.2c0-0.4,0-0.8,0-1.2l0.1-2.4
	C84,57.9,83.5,61.1,82.5,64.2z"/>
<path class="st0" d="M69.2,37.6c1,0.2,2.1,0,2.8-0.7c-0.5-0.1-0.9-0.1-1.4-0.1c-0.4,0-0.8-0.1-1.2-0.2c-0.8-0.2-1.5-0.5-2.4-0.9
	c0.2,0.5,0.5,0.9,0.9,1.2C68.2,37.2,68.7,37.4,69.2,37.6z"/>
<path class="st0" d="M58.8,33.8c-0.5-0.1-0.9,0-1.4-0.1c-0.4,0-0.8-0.1-1.2-0.2c-0.8-0.2-1.5-0.5-2.4-0.9c0.2,0.5,0.5,0.9,0.9,1.2
	s0.9,0.5,1.3,0.7C57,34.8,58.1,34.5,58.8,33.8z"/>
</svg>
